# Blender 4.4.0
# www.blender.org
mtllib Modulo0.1.mtl
o Plane.002
v 13.314488 0.000000 25.716444
v 7.423790 0.000000 25.716444
v 13.314488 0.000000 -5.103259
v 7.423790 0.000000 -5.103259
v 16.319332 6.048678 25.716448
v 16.319332 6.048678 -5.103257
v 23.598448 6.048678 25.716448
v 23.598448 6.048678 -5.103257
v 13.934308 -1.000000 25.716444
v 7.423790 -1.000000 25.716444
v 13.934308 -1.000000 -5.103259
v 7.423790 -1.000000 -5.103259
v 16.939152 5.048678 25.716448
v 16.939152 5.048678 -5.103257
v 23.598448 5.048678 25.716448
v 23.598448 5.048678 -5.103257
v -4.357607 0.000000 25.716444
v 1.533092 0.000000 25.716444
v -4.357607 0.000000 -5.103259
v 1.533092 0.000000 -5.103259
v -7.362452 6.048678 25.716448
v -7.362452 6.048678 -5.103257
v -14.641565 6.048678 25.716448
v -14.641565 6.048678 -5.103257
v -4.977425 -1.000000 25.716444
v 1.533092 -1.000000 25.716444
v -4.977425 -1.000000 -5.103259
v 1.533092 -1.000000 -5.103259
v -7.982269 5.048678 25.716448
v -7.982269 5.048678 -5.103257
v -14.641565 5.048678 25.716448
v -14.641565 5.048678 -5.103257
vn -0.0000 1.0000 -0.0000
vn -0.8956 0.4449 -0.0000
vn -0.0000 -1.0000 -0.0000
vn 0.8956 -0.4449 -0.0000
vn -0.0000 -0.0000 1.0000
vn -1.0000 -0.0000 -0.0000
vn -0.0000 -0.0000 -1.0000
vn 1.0000 -0.0000 -0.0000
vn 0.8956 0.4449 -0.0000
vn -0.8956 -0.4449 -0.0000
vt 0.000000 0.000000
vt 0.000000 1.000000
vt 1.000000 1.000000
vt 1.000000 0.000000
s 0
f 1/1/1 3/2/1 4/3/1 2/4/1
f 5/1/1 7/1/1 8/2/1 6/2/1
f 1/1/2 5/1/2 6/2/2 3/2/2
f 9/1/3 10/4/3 12/3/3 11/2/3
f 13/1/3 14/2/3 16/2/3 15/1/3
f 9/1/4 11/2/4 14/2/4 13/1/4
f 1/1/5 2/4/5 10/4/5 9/1/5
f 2/4/6 4/3/6 12/3/6 10/4/6
f 4/3/7 3/2/7 11/2/7 12/3/7
f 8/2/8 7/1/8 15/1/8 16/2/8
f 7/1/5 5/1/5 13/1/5 15/1/5
f 6/2/7 8/2/7 16/2/7 14/2/7
f 5/1/5 1/1/5 9/1/5 13/1/5
f 3/2/7 6/2/7 14/2/7 11/2/7
f 17/1/1 18/4/1 20/3/1 19/2/1
f 21/1/1 22/2/1 24/2/1 23/1/1
f 17/1/9 19/2/9 22/2/9 21/1/9
f 25/1/3 27/2/3 28/3/3 26/4/3
f 29/1/3 31/1/3 32/2/3 30/2/3
f 25/1/10 29/1/10 30/2/10 27/2/10
f 17/1/5 25/1/5 26/4/5 18/4/5
f 18/4/8 26/4/8 28/3/8 20/3/8
f 20/3/7 28/3/7 27/2/7 19/2/7
f 24/2/6 32/2/6 31/1/6 23/1/6
f 23/1/5 31/1/5 29/1/5 21/1/5
f 22/2/7 30/2/7 32/2/7 24/2/7
f 21/1/5 29/1/5 25/1/5 17/1/5
f 19/2/7 27/2/7 30/2/7 22/2/7
o Plane.001
v 7.423790 0.000000 25.716444
v 1.533092 0.000000 25.716444
v 7.423790 0.000000 -5.103259
v 1.533092 0.000000 -5.103259
v 7.423790 -1.000000 25.716444
v 1.533092 -1.000000 25.716444
v 7.423790 -1.000000 -5.103259
v 1.533092 -1.000000 -5.103259
vn -0.0000 1.0000 -0.0000
vn -0.0000 -1.0000 -0.0000
vn 1.0000 -0.0000 -0.0000
vn -0.0000 -0.0000 1.0000
vn -1.0000 -0.0000 -0.0000
vn -0.0000 -0.0000 -1.0000
vt 0.000000 0.000000
vt 0.000000 1.000000
vt 1.000000 1.000000
vt 1.000000 0.000000
s 0
f 33/5/11 35/6/11 36/7/11 34/8/11
f 37/5/12 38/8/12 40/7/12 39/6/12
f 35/6/13 33/5/13 37/5/13 39/6/13
f 33/5/14 34/8/14 38/8/14 37/5/14
f 34/8/15 36/7/15 40/7/15 38/8/15
f 36/7/16 35/6/16 39/6/16 40/7/16
o Cube.002
v -7.029195 3.177848 19.077953
v -7.029195 4.326051 19.077953
v -7.029195 3.177848 2.335589
v -7.029195 4.326051 2.335589
v -5.880992 3.177848 19.077953
v -5.880992 4.326051 19.077953
v -5.880992 3.177848 2.335589
v -5.880992 4.326051 2.335589
v 15.986076 3.177848 19.077953
v 15.986076 4.326050 19.077953
v 15.986076 3.177848 2.335589
v 15.986076 4.326050 2.335589
v 14.837873 3.177848 19.077953
v 14.837873 4.326050 19.077953
v 14.837873 3.177848 2.335589
v 14.837873 4.326050 2.335589
vn -1.0000 -0.0000 -0.0000
vn -0.0000 -0.0000 -1.0000
vn 1.0000 -0.0000 -0.0000
vn -0.0000 -0.0000 1.0000
vn -0.0000 -1.0000 -0.0000
vn -0.0000 1.0000 -0.0000
vt 0.375000 0.000000
vt 0.625000 0.000000
vt 0.625000 0.250000
vt 0.375000 0.250000
vt 0.625000 0.500000
vt 0.375000 0.500000
vt 0.625000 0.750000
vt 0.375000 0.750000
vt 0.625000 1.000000
vt 0.375000 1.000000
vt 0.125000 0.500000
vt 0.125000 0.750000
vt 0.875000 0.500000
vt 0.875000 0.750000
s 0
f 41/9/17 42/10/17 44/11/17 43/12/17
f 43/12/18 44/11/18 48/13/18 47/14/18
f 47/14/19 48/13/19 46/15/19 45/16/19
f 45/16/20 46/15/20 42/17/20 41/18/20
f 43/19/21 47/14/21 45/16/21 41/20/21
f 48/13/22 44/21/22 42/22/22 46/15/22
f 49/9/19 51/12/19 52/11/19 50/10/19
f 51/12/18 55/14/18 56/13/18 52/11/18
f 55/14/17 53/16/17 54/15/17 56/13/17
f 53/16/20 49/18/20 50/17/20 54/15/20
f 51/19/21 49/20/21 53/16/21 55/14/21
f 56/13/22 54/15/22 50/22/22 52/21/22
o Cube.003
v -2.171533 0.000000 21.382011
v -2.171533 3.315274 21.382011
v -2.171533 0.000000 18.066738
v -2.171533 3.315274 18.066738
v 1.143742 0.000000 21.382011
v 1.143742 3.315274 21.382011
v 1.143742 0.000000 18.066738
v 1.143742 3.315274 18.066738
vn -1.0000 -0.0000 -0.0000
vn -0.0000 -0.0000 -1.0000
vn 1.0000 -0.0000 -0.0000
vn -0.0000 -0.0000 1.0000
vn -0.0000 -1.0000 -0.0000
vn -0.0000 1.0000 -0.0000
vt 0.375000 0.000000
vt 0.625000 0.000000
vt 0.625000 0.250000
vt 0.375000 0.250000
vt 0.625000 0.500000
vt 0.375000 0.500000
vt 0.625000 0.750000
vt 0.375000 0.750000
vt 0.625000 1.000000
vt 0.375000 1.000000
vt 0.125000 0.500000
vt 0.125000 0.750000
vt 0.875000 0.500000
vt 0.875000 0.750000
s 0
f 57/23/23 58/24/23 60/25/23 59/26/23
f 59/26/24 60/25/24 64/27/24 63/28/24
f 63/28/25 64/27/25 62/29/25 61/30/25
f 61/30/26 62/29/26 58/31/26 57/32/26
f 59/33/27 63/28/27 61/30/27 57/34/27
f 64/27/28 60/35/28 58/36/28 62/29/28
